<svg xmlns="http://www.w3.org/2000/svg" viewBox="0 0 64 64" fill="none">
  <!-- Crawlstr mark: a spider whose legs double as a network graph -->
  <g stroke="#22c55e" stroke-width="3" stroke-linecap="round" stroke-linejoin="round">
    <!-- Web arcs behind the body -->
    <path d="M12 26a20 20 0 0 1 40 0" opacity=".35"/>
    <path d="M18 34a14 14 0 0 1 28 0" opacity=".2"/>

    <!-- Left legs -->
    <path d="M26 30 16 22 8 26"/>
    <path d="M26 34 14 34 6 39"/>
    <path d="M26 38 16 45 10 53"/>
    <path d="M28 41 24 50 26 58"/>

    <!-- Right legs -->
    <path d="M38 30 48 22 56 26"/>
    <path d="M38 34 50 34 58 39"/>
    <path d="M38 38 48 45 54 53"/>
    <path d="M36 41 40 50 38 58"/>
  </g>

  <!-- Node dots at the leg tips (the "network" read) -->
  <g fill="#22c55e">
    <circle cx="8" cy="26" r="2.6"/>
    <circle cx="6" cy="39" r="2.6"/>
    <circle cx="10" cy="53" r="2.6"/>
    <circle cx="26" cy="58" r="2.6"/>
    <circle cx="56" cy="26" r="2.6"/>
    <circle cx="58" cy="39" r="2.6"/>
    <circle cx="54" cy="53" r="2.6"/>
    <circle cx="38" cy="58" r="2.6"/>
  </g>

  <!-- Body -->
  <ellipse cx="32" cy="35" rx="9" ry="11" fill="#22c55e"/>
  <!-- Head -->
  <circle cx="32" cy="23" r="5.5" fill="#22c55e"/>
  <!-- Eyes -->
  <circle cx="30" cy="22" r="1.35" fill="#0a0a0a"/>
  <circle cx="34" cy="22" r="1.35" fill="#0a0a0a"/>
</svg>
